<svg width="30" height="35" viewBox="0 0 67 63" fill="none" xmlns="http://www.w3.org/2000/svg">
<path d="M26.6364 48.3547C31.9365 45.1679 39.1334 41.1843 45.2811 35.0365C58.5221 21.7975 69.2561 3.07362 66.591 0.408477C63.9277 -2.25479 45.2039 8.47926 31.9629 21.7183C25.8133 27.868 21.8316 35.0629 18.6447 40.3631L26.6364 48.3547V48.3547Z" fill="black"/>
<path d="M0 61.673C0 61.673 13.3182 64.3363 22.6415 55.013C26.6364 51.0181 26.6364 45.6916 26.6364 45.6916L21.308 40.3632C21.308 40.3632 14.6498 41.6967 11.9847 44.3599C9.32142 47.0232 7.24204 52.3309 6.54515 54.9037C5.27191 59.6163 0 61.673 0 61.673V61.673Z" fill="black"/>
<path d="M32.8746 43.9379L23.1407 34.204C22.4042 33.4675 21.3363 33.5899 20.7486 34.4771L18.6335 37.6884C18.0477 38.5755 18.123 39.8394 18.7973 40.5155L26.5611 48.2812C27.2354 48.9555 28.5011 49.029 29.3882 48.4451L32.5996 46.328C33.4886 45.7423 33.6091 44.6743 32.8746 43.9379V43.9379Z" fill="#0596ff"/>
<path d="M20.3436 56.9943C18.1004 58.4427 16.9044 57.2354 17.3131 55.8472C17.7293 54.4327 17.0871 52.7432 14.9832 53.184C12.8793 53.6228 11.4874 52.5172 12.1523 49.8558C12.8078 47.2321 10.1087 46.3469 8.84866 49.0365C7.75247 51.2214 6.93315 53.4797 6.54703 54.9036C5.2719 59.618 0 61.6748 0 61.6748C0 61.6748 11.2784 63.9048 20.3436 56.9943Z" fill="#0596ff"/>
</svg>
