<svg width="36" height="36" viewBox="0 0 36 36" fill="none" xmlns="http://www.w3.org/2000/svg">
<path d="M36 18C36 27.941 27.941 36 18 36C8.06 36 0 27.941 0 18C0 8.06 8.06 0 18 0C27.941 0 36 8.06 36 18Z" fill="#FFCC4D"/>
<path d="M11.5 20C12.8807 20 14 18.433 14 16.5C14 14.567 12.8807 13 11.5 13C10.1193 13 9 14.567 9 16.5C9 18.433 10.1193 20 11.5 20Z" fill="#664500"/>
<path d="M28.457 17.797C28.397 17.662 26.958 14.5 24 14.5C21.043 14.5 19.603 17.662 19.543 17.797C19.451 18.004 19.511 18.246 19.688 18.388C19.863 18.53 20.114 18.535 20.298 18.402C20.31 18.393 21.56 17.5 24 17.5C26.426 17.5 27.674 18.381 27.702 18.401C27.79 18.467 27.896 18.5 28 18.5C28.11 18.5 28.221 18.463 28.312 18.391C28.489 18.249 28.55 18.005 28.457 17.797V17.797ZM5.999 12.458C5.791 12.458 5.58 12.393 5.4 12.258C4.958 11.927 4.869 11.3 5.2 10.858C8.462 6.50801 12.816 6.45801 13 6.45801C13.552 6.45801 14 6.90601 14 7.45801C14 8.00901 13.555 8.45601 13.004 8.45801C12.848 8.46001 9.435 8.54401 6.799 12.058C6.604 12.32 6.303 12.458 5.999 12.458ZM29.001 14.583C28.696 14.583 28.397 14.445 28.2 14.183C25.608 10.726 21.239 11.556 21.196 11.563C20.649 11.671 20.128 11.32 20.019 10.779C19.911 10.237 20.262 9.71101 20.803 9.60201C21.034 9.55501 26.46 8.53001 29.799 12.982C30.131 13.424 30.041 14.051 29.599 14.382C29.42 14.519 29.21 14.583 29.001 14.583V14.583ZM23.254 23.577C23.066 23.467 22.822 23.49 22.657 23.637C22.647 23.645 21.644 24.5 18 24.5C14.359 24.5 13.354 23.646 13.354 23.646C13.195 23.486 12.95 23.456 12.754 23.564C12.559 23.675 12.461 23.903 12.516 24.121C12.526 24.165 13.66 28.5 18 28.5C22.34 28.5 23.474 24.165 23.485 24.121C23.538 23.908 23.441 23.69 23.254 23.577V23.577Z" fill="#664500"/>
</svg>
