<?xml version="1.0" standalone="no"?>
<!DOCTYPE svg PUBLIC "-//W3C//DTD SVG 20010904//EN"
 "http://www.w3.org/TR/2001/REC-SVG-20010904/DTD/svg10.dtd">
<svg version="1.0" xmlns="http://www.w3.org/2000/svg"
 width="20px" height="20px" viewBox="0 0 2048.000000 2048.000000"
 preserveAspectRatio="xMidYMid meet">

<g transform="translate(0.000000,2048.000000) scale(0.100000,-0.100000)"
fill="#000000" stroke="none">
<path d="M0 10240 l0 -10240 10240 0 10240 0 0 10240 0 10240 -10240 0 -10240
0 0 -10240z m12781 4411 l2544 -1469 0 -2942 0 -2942 -2535 -1464 c-1394 -805
-2542 -1463 -2550 -1463 -8 0 -1156 658 -2550 1463 l-2535 1463 -3 2941 -2
2941 182 105 c188 109 4902 2834 4904 2835 1 1 1147 -660 2545 -1468z"/>
<path d="M8820 14701 c-778 -449 -1804 -1042 -2280 -1317 l-865 -499 0 -2644
0 -2644 2282 -1319 2283 -1319 1367 790 c753 434 1780 1028 2283 1318 l915
529 2 2644 2 2645 -2279 1315 c-1254 723 -2284 1316 -2288 1317 -4 1 -644
-366 -1422 -816z m-1330 -1601 c25 -15 601 -354 1280 -752 l1236 -724 195 1
196 1 154 91 c1961 1153 2416 1416 2454 1417 24 0 155 -34 319 -83 l278 -84
74 38 c139 71 248 42 305 -80 18 -39 19 -125 19 -2555 0 -2427 -1 -2516 -19
-2555 -10 -22 -31 -52 -47 -66 -42 -39 -2871 -1611 -2919 -1622 -22 -6 -71
-24 -110 -42 -156 -73 -309 -108 -548 -126 -313 -24 -669 30 -852 130 -27 15
-69 33 -92 39 -41 12 -2810 1547 -2888 1602 -22 15 -51 47 -65 71 l-25 44 -3
2480 c-2 1364 0 2504 3 2532 8 63 54 138 103 167 53 30 128 25 206 -13 35 -17
71 -31 80 -31 17 0 429 120 501 146 53 19 109 10 165 -26z"/>
<path d="M7266 12804 c-43 -13 -81 -25 -83 -28 -5 -5 12 -15 1269 -714 564
-315 1033 -572 1042 -572 19 0 86 31 86 40 0 10 -2206 1300 -2221 1299 -8 -1
-49 -12 -93 -25z"/>
<path d="M11927 12187 c-605 -354 -1098 -648 -1098 -653 1 -5 25 -19 54 -32
l53 -23 1150 640 c632 352 1147 644 1145 648 -5 8 -175 62 -196 63 -5 0 -504
-290 -1108 -643z"/>
<path d="M6830 10262 l0 -2258 1213 -677 c668 -372 1217 -677 1220 -677 10 0
8 4492 -1 4506 -4 7 -542 310 -1197 674 -654 364 -1200 668 -1212 676 l-23 14
0 -2258z"/>
<path d="M12390 11842 l-1215 -677 -3 -2258 c-1 -1321 2 -2257 7 -2255 5 1
554 307 1220 678 l1210 675 1 2258 c0 1241 -1 2257 -2 2257 -2 -1 -550 -306
-1218 -678z"/>
<path d="M10060 11233 c-151 -15 -349 -63 -386 -94 -12 -10 -14 -381 -14
-2354 l0 -2343 53 -21 c226 -91 606 -107 874 -36 50 13 109 32 130 42 l38 18
3 2342 2 2343 -39 20 c-125 63 -449 104 -661 83z m540 -643 c43 -43 34 -110
-20 -137 -39 -20 -651 -18 -689 2 -38 19 -55 62 -41 100 21 55 18 54 388 55
327 0 343 -1 362 -20z m-17 -371 c25 -11 47 -47 47 -74 0 -27 -22 -63 -47 -74
-16 -7 -133 -11 -353 -11 l-329 0 -27 24 c-21 18 -28 32 -28 61 0 29 7 43 28
61 l27 24 329 0 c220 0 337 -4 353 -11z m18 -398 c42 -43 34 -106 -18 -130
-34 -16 -663 -15 -697 0 -37 17 -52 69 -31 109 9 17 26 35 38 40 12 5 170 9
350 9 l329 1 29 -29z"/>
</g>
</svg>
