<svg width="61" height="66" viewBox="0 0 61 66" fill="none" xmlns="http://www.w3.org/2000/svg">
<path d="M8.24632 16.5639C9.84096 15.3687 12.2448 15.5979 13.6766 16.8658L12.0344 14.3062C10.7129 12.2851 11.1862 10.0984 13.0726 8.67946C14.9591 7.26594 20.3045 11.0662 20.3045 11.0662C18.9711 9.02511 19.2205 6.43821 21.1239 5.0065C23.0273 3.58025 25.6533 4.07325 26.9867 6.11803L44.6635 32.8966L42.4106 56.3188L23.6091 48.9656L7.20981 22.891C5.86454 20.8372 6.32936 18.0047 8.24632 16.5639Z" fill="#EF9645"/>
<path d="M4.57189 31.4612C4.57189 31.4612 2.65154 28.4595 5.45233 26.402C8.24974 24.3445 10.1684 27.3443 10.1684 27.3443L19.0763 41.2758C19.3834 40.7264 19.7193 40.1842 20.0942 39.6494L7.73063 20.3168C7.73063 20.3168 5.81197 17.3169 8.61107 15.2594C11.4085 13.2019 13.3271 16.2018 13.3271 16.2018L24.9561 34.3883C25.3887 34.0099 25.8315 33.6297 26.2878 33.2567L12.8063 12.1704C12.8063 12.1704 10.8877 9.17057 13.6868 7.11305C16.4842 5.05554 18.4028 8.0554 18.4028 8.0554L31.8843 29.1381C32.3797 28.8124 32.8699 28.5305 33.3619 28.2321L20.7609 8.52657C20.7609 8.52657 18.8422 5.52671 21.6396 3.4692C24.437 1.41169 26.3557 4.41155 26.3557 4.41155L39.6794 25.2486L41.7049 28.4177C33.311 34.592 32.512 46.2076 37.3078 53.7082C38.2663 55.209 39.6658 54.1812 39.6658 54.1812C33.9099 45.1779 35.6673 35.0614 44.063 28.8888L41.5879 15.6051C41.5879 15.6051 40.6633 12.1049 43.9255 11.1117C47.1895 10.1202 48.1157 13.6203 48.1157 13.6203L50.9742 22.7236C52.1074 26.3329 53.3136 29.9294 54.9099 33.3313C59.4173 42.9367 56.7251 54.8743 48.226 61.1269C38.955 67.9434 26.281 65.4092 19.9228 55.4691L4.57189 31.4612Z" fill="#FFDC5D"/>
<path d="M20.3571 58.2143C13.5714 58.2143 6.71445 50.8611 6.71445 43.5843C6.71445 42.5783 6.02739 41.7651 5.08927 41.7651C4.15115 41.7651 3.32159 42.5783 3.32159 43.5843C3.32159 54.4995 10.1785 61.8527 20.3571 61.8527C21.2952 61.8527 22.0535 60.9631 22.0535 59.9571C22.0535 58.9511 21.2952 58.2143 20.3571 58.2143Z" fill="#5DADEC"/>
<path d="M11.875 61.7763C6.78569 61.7763 3.39285 58.1379 3.39285 52.6803C3.39285 51.6743 2.63455 50.8612 1.69642 50.8612C0.758301 50.8612 0 51.6743 0 52.6803C0 59.9571 5.08927 65.4147 11.875 65.4147C12.8131 65.4147 13.5714 64.6016 13.5714 63.5955C13.5714 62.5895 12.8131 61.7763 11.875 61.7763ZM40.7142 3.56201C39.7777 3.56201 39.0177 4.37701 39.0177 5.38121C39.0177 6.38541 39.7777 7.20041 40.7142 7.20041C47.4999 7.20041 54.2856 13.7295 54.2856 21.754C54.2856 22.7582 55.0456 23.5732 55.982 23.5732C56.9184 23.5732 57.6784 22.7582 57.6784 21.754C57.6784 11.7229 50.8927 3.56201 40.7142 3.56201Z" fill="#5DADEC"/>
<path d="M49.1963 0C48.2599 0 47.4999 0.738596 47.4999 1.74279C47.4999 2.74699 48.2599 3.6384 49.1963 3.6384C54.2855 3.6384 57.6071 7.68613 57.6071 12.658C57.6071 13.6622 58.4367 14.4772 59.3748 14.4772C60.3129 14.4772 61 13.6622 61 12.658C61 5.67773 55.982 0 49.1963 0Z" fill="#5DADEC"/>
</svg>
