<svg width="76" height="66" viewBox="0 0 76 66" fill="none" xmlns="http://www.w3.org/2000/svg">
<path d="M38 0C17.0134 0 0 14.5836 0 32.5702C0 34.8207 0.266 37.0183 0.774778 39.14C4.53044 45.6021 7.12922 41.5234 19 35.587C31.0903 29.5408 19 44.0314 14.7778 52.4759C13.4794 55.0726 14.1824 57.2702 15.96 59.071C22.1793 62.8794 29.7751 65.1426 38 65.1426C58.9866 65.1426 76 50.5611 76 32.5702C76 14.5836 58.9866 0 38 0V0ZM44.0146 51.6103C43.1807 54.4519 38.8212 55.6721 34.276 54.3358C29.7308 53.0016 26.7224 49.6196 27.5563 46.7759C28.3902 43.9343 32.7497 42.7141 37.2949 44.0526C41.8401 45.3847 44.8484 48.7667 44.0146 51.6103V51.6103Z" fill="#0596FF"/>
<path d="M21.1111 22.9205C24.6089 22.9205 27.4444 20.0849 27.4444 16.5871C27.4444 13.0893 24.6089 10.2538 21.1111 10.2538C17.6133 10.2538 14.7778 13.0893 14.7778 16.5871C14.7778 20.0849 17.6133 22.9205 21.1111 22.9205Z" fill="white"/>
<path d="M42.2222 18.6983C45.72 18.6983 48.5556 15.8628 48.5556 12.3649C48.5556 8.86715 45.72 6.03162 42.2222 6.03162C38.7244 6.03162 35.8889 8.86715 35.8889 12.3649C35.8889 15.8628 38.7244 18.6983 42.2222 18.6983Z" fill="white"/>
<path d="M61.2222 31.3649C64.72 31.3649 67.5556 28.5294 67.5556 25.0316C67.5556 21.5338 64.72 18.6982 61.2222 18.6982C57.7244 18.6982 54.8889 21.5338 54.8889 25.0316C54.8889 28.5294 57.7244 31.3649 61.2222 31.3649Z" fill="white"/>
<path d="M59.1111 50.3649C62.6089 50.3649 65.4444 47.5294 65.4444 44.0316C65.4444 40.5338 62.6089 37.6982 59.1111 37.6982C55.6133 37.6982 52.7778 40.5338 52.7778 44.0316C52.7778 47.5294 55.6133 50.3649 59.1111 50.3649Z" fill="white"/>
</svg>
