<svg width="83" height="83" viewBox="0 0 83 83" fill="none" xmlns="http://www.w3.org/2000/svg">
<path d="M66.1925 44.737C66.317 43.6995 66.4 42.6205 66.4 41.5C66.4 40.3795 66.317 39.3006 66.151 38.2631L73.1645 32.785C73.787 32.287 73.953 31.374 73.5795 30.6685L66.9395 19.173C66.5245 18.426 65.653 18.177 64.906 18.426L56.6475 21.746C54.9045 20.418 53.0785 19.339 51.045 18.509L49.8 9.71105C49.6755 8.88105 48.97 8.30005 48.14 8.30005H34.86C34.03 8.30005 33.366 8.88105 33.2415 9.71105L31.9965 18.509C29.963 19.339 28.0955 20.4595 26.394 21.746L18.1355 18.426C17.3885 18.1355 16.517 18.426 16.102 19.173L9.462 30.6685C9.047 31.4155 9.213 32.287 9.877 32.785L16.8905 38.2631C16.7245 39.3006 16.6 40.421 16.6 41.5C16.6 42.579 16.683 43.6995 16.849 44.737L9.8355 50.2151C9.213 50.7131 9.047 51.626 9.4205 52.3315L16.0605 63.8271C16.4755 64.5741 17.347 64.8231 18.094 64.5741L26.3525 61.2541C28.0955 62.5821 29.9215 63.661 31.955 64.491L33.2 73.289C33.366 74.119 34.03 74.7001 34.86 74.7001H48.14C48.97 74.7001 49.6755 74.119 49.7585 73.289L51.0035 64.491C53.037 63.661 54.9045 62.5406 56.606 61.2541L64.8645 64.5741C65.6115 64.8646 66.483 64.5741 66.898 63.8271L73.538 52.3315C73.953 51.5845 73.787 50.7131 73.123 50.2151L66.1925 44.737V44.737ZM41.5 53.95C34.6525 53.95 29.05 48.3475 29.05 41.5C29.05 34.6525 34.6525 29.05 41.5 29.05C48.3475 29.05 53.95 34.6525 53.95 41.5C53.95 48.3475 48.3475 53.95 41.5 53.95Z" fill="#0596ff"/>
</svg>
